<?xml version="1.0" encoding="UTF-8" standalone="no"?>
<!DOCTYPE svg PUBLIC "-//W3C//DTD SVG 1.1//EN" "http://www.w3.org/Graphics/SVG/1.1/DTD/svg11.dtd">
<!-- Created with Vectornator (http://vectornator.io/) -->
<svg height="100%" stroke-miterlimit="10" style="fill-rule:nonzero;clip-rule:evenodd;stroke-linecap:round;stroke-linejoin:round;" version="1.1" viewBox="0 0 1451.52 1451.52" width="100%" xml:space="preserve" xmlns="http://www.w3.org/2000/svg" xmlns:xlink="http://www.w3.org/1999/xlink">
<defs/>
<clipPath id="ArtboardFrame">
<rect height="1451.52" width="1451.52" x="0" y="0"/>
</clipPath>
<g clip-path="url(#ArtboardFrame)" id="Layer-1">
<path d="M0 725.76C0 324.934 324.934 0 725.76 0C1126.59 0 1451.52 324.934 1451.52 725.76C1451.52 1126.59 1126.59 1451.52 725.76 1451.52C324.934 1451.52 0 1126.59 0 725.76Z" fill="#ffffff" fill-rule="nonzero" opacity="1" stroke="none"/>
<path d="M701.505 120.313C631.226 118.721 548.912 142.594 505.254 182.004C495.378 190.921 479.012 200.151 468.945 202.512C446.363 207.804 418.179 255.251 410.701 300.595C407.765 318.374 400.48 354.003 394.479 379.684C376.016 458.709 374.372 583.872 390.613 674.102C398.375 717.207 404.35 763.098 403.893 776.135C403.435 789.171 405.509 828.135 408.515 862.704C411.686 899.151 411.249 925.541 407.507 925.488C404.833 925.452 398.329 922.63 390.193 918.512C390.657 926.728 390.387 934.887 389.353 943.054C443.499 974.883 492.164 992.411 544.756 1000.71C584.472 1006.98 665.108 1033.31 674.862 1043.15C683.942 1052.32 717.247 1138.34 731.594 1189.73C753.307 1267.55 777.389 1325.96 789.671 1330.68C798.385 1334.02 842.873 1322.58 842.873 1316.98C842.872 1315.72 840.864 1309.55 838.502 1303.37C834.657 1293.34 832.481 1293.27 818.919 1302.78C801.896 1314.7 792.528 1316.42 792.528 1307.57C792.529 1300.75 857.061 1270.33 871.533 1270.33C876.872 1270.33 887.085 1275.73 894.31 1282.27C906.533 1293.33 908.387 1293.33 920.616 1282.27C939.602 1265.09 967.065 1267.63 986.594 1288.4C995.923 1298.33 1005.93 1304.02 1008.87 1301.01C1011.8 1298 1015.06 1249.36 1016.09 1192.93C1017.63 1108.64 1019.72 1091.01 1027.95 1094.17C1031.69 1095.61 1044.25 1097.68 1058.45 1099.63C1062.26 1091.75 1066.75 1084.25 1072.07 1077.19C1068.96 1077.05 1065.77 1076.72 1062.74 1076.69C1032.4 1076.41 981.093 1063.6 966.759 1052.74C955.002 1043.83 955.389 1024.95 967.935 995.835C980.391 966.942 1005.7 855.948 1010.97 807.065C1013.1 787.311 1011.66 751.767 1007.77 728.06C990.177 620.721 989.972 626.436 1012.4 615.689C1038.64 603.113 1036.36 592.492 1006.51 587.953C983.416 584.443 982.785 583.398 978.021 540.214C972.589 490.963 948.383 434.039 914.229 390.442C903.348 376.549 891.566 335.066 881.618 275.465C871.506 214.917 818.964 149.215 765.885 130.735C747.028 124.169 724.931 120.843 701.505 120.313ZM691.923 143.258C717.258 143.655 743.988 145.684 752.606 149.057C771.975 156.642 760.155 161.733 709.825 167.464C685.475 170.236 658.748 178.209 648.723 185.786C631.516 198.773 630.952 202.139 631.241 282.273C631.406 327.927 629.767 365.233 627.627 365.143C625.488 365.056 615.652 358.665 605.775 350.939C584.188 334.055 571.659 332.152 584.595 347.746C589.708 353.906 594.112 376.535 594.428 398.006C595.022 439.172 600.325 446.355 612.835 422.968C618.535 412.318 625.316 409.749 640.15 412.714C655.853 415.855 663.921 412.213 679.568 394.644C690.382 382.508 698.376 368.508 697.386 363.547C694.918 351.239 745.725 347.597 771.432 358.252C796.833 368.773 803.436 384.722 784.88 390.61C766.539 396.431 774.111 408.344 796.142 408.344C819.104 408.344 822.619 400.456 810.178 376.49C796.597 350.311 796.626 350.021 817.658 354.385C827.535 356.436 842.985 359.622 851.95 361.445C882.314 367.617 943.393 442.538 943.393 473.649C943.393 481.896 918.9 480.04 880.526 468.858C861.216 463.232 857.926 478.295 876.912 485.415C883.825 488.009 892.988 494.776 897.251 500.46C903.365 508.609 908.214 509.015 920.28 502.561C933.063 495.72 936.802 496.671 943.057 508.36C953.737 528.317 953.269 529.725 925.491 555.175C892.302 585.574 885.821 626.662 904.816 686.037C913.906 714.463 918.921 722.988 920.448 712.343C921.858 702.561 928.666 695.749 938.435 694.357C949.541 692.776 954.822 686.295 956.421 672.337C958.377 655.328 956.15 652.586 940.284 652.586C916.533 652.586 916.543 639.929 940.284 630.901C964.537 621.681 964.909 621.741 964.909 636.785C964.909 643.896 967.917 652.781 971.549 656.536C981.093 666.4 993.715 741.988 993.57 788.574C993.445 832.654 970.263 952.449 956.925 977.765C944.318 1001.71 937.076 1004.37 885.064 1004.49C852.274 1004.57 826.95 999.932 803.622 989.616C785.013 981.384 767.962 976.517 765.717 978.774C763.46 981.031 777.445 989.553 796.815 997.685C816.191 1005.81 837.693 1015.51 844.554 1019.28C851.413 1023.06 870.209 1026.18 886.325 1026.18C935.227 1026.18 943.393 1034.5 943.393 1084.34C943.394 1122.4 924.078 1189.33 908.093 1206.71C893.025 1223.09 872.528 1218.35 834.216 1189.56C786.552 1153.74 777.538 1142.57 732.35 1063.41C689.028 987.532 670.407 944.052 670.407 918.68C670.407 907.639 665.332 894.398 659.145 889.263C652.959 884.129 643.393 871.192 637.881 860.519C628.849 843.054 629.299 839.844 641.831 828.497C660.044 812.016 652.833 801.439 627.207 807.065C582.806 816.816 541.142 771.376 541.142 713.184C541.143 700.072 538.344 687.645 534.923 685.532C527.14 680.723 533.348 645.442 541.983 645.442C545.473 645.442 548.286 653.469 548.286 663.344C548.286 673.221 551.557 681.33 555.514 681.33C559.465 681.33 562.658 692.877 562.658 706.964C562.658 735.368 573.352 760.335 585.435 760.335C590.419 760.335 591.792 751.116 589.217 735.204C585.959 715.127 587.949 708.626 599.051 702.678C606.704 698.582 613.003 689.476 613.003 682.507C613.003 672.208 607.917 670.3 586.024 672.337L559.128 674.858L580.645 656.62C592.497 646.568 610.413 638.318 620.483 638.298C643.758 638.252 695.922 587.039 689.57 570.471C686.401 562.214 693.831 555.048 716.801 544.249C734.157 536.091 750.099 524.84 752.269 519.202C756.974 506.938 746.753 505.991 726.467 516.849C718.321 521.209 695.097 527.558 674.862 530.969C604.293 542.869 591.592 546.508 595.857 553.41C598.317 557.392 614.541 558.42 633.847 555.763C665.672 551.386 667.542 551.976 667.213 567.698C666.926 581.794 638.725 619.352 627.375 620.732C625.4 620.972 611.111 626.698 595.689 633.423C580.267 640.148 566.444 644.352 564.928 642.836C561.065 638.974 578.323 602.325 584.006 602.325C586.568 602.325 594.907 597.424 602.581 591.399C615.626 581.149 614.643 580.492 586.36 582.07C551.169 584.031 542.533 578.446 555.851 562.403C562.176 554.781 562.878 549.309 557.952 546.098C553.86 543.435 548.969 536.56 547.11 530.801C543.413 519.313 490.882 512.561 490.882 523.573C490.881 527.198 500.552 535.178 512.398 541.307C536.754 553.902 537.788 557.209 522.988 576.775C508.404 596.057 508.448 614.547 523.072 602.409C539.597 588.695 544.566 610.755 530.888 637.205C524.676 649.218 519.626 665.408 519.626 673.177C519.625 680.946 515.837 688.558 511.305 690.071C505.434 692.028 506.675 703.631 515.592 730.498C522.479 751.236 526.325 775.514 524.081 784.456C520.854 797.316 528.185 808.863 559.128 839.423C580.649 860.676 600.165 876.129 602.497 873.799C604.828 871.467 597.797 861.243 586.864 851.106C562.617 828.623 568.341 819.997 598.715 833.204C617.289 841.283 620.687 846.336 618.382 862.368C616.854 873.024 618.1 880.146 621.155 878.253C630.592 872.421 647.854 905.939 653.009 939.944C655.697 957.722 664.241 979.211 671.92 987.683C681.084 997.786 683.225 1004.71 678.14 1007.85C670.525 1012.56 654.82 1008.47 578.543 981.884C557.653 974.602 529.631 968.688 516.264 968.688C497.498 968.688 485.353 962.093 462.726 939.692C446.609 923.736 433.393 903.845 433.393 895.567C433.394 887.289 429.568 867.783 424.905 852.198C417.881 828.754 418.167 822.78 426.67 817.487C435.138 812.217 435.335 808.473 427.846 796.391C422.84 788.312 420.779 773.717 423.224 763.949C425.673 754.189 424.167 736.169 419.862 723.858C412.955 704.045 413.734 701.015 426.333 697.719C444.839 692.88 444.507 691.277 419.021 662.251C398.995 639.443 397.505 633.752 397.505 581.398C397.505 514.407 404.19 505.159 447.513 512.479C466.114 515.621 476.51 514.644 476.51 509.789C476.51 496.283 450.389 487.887 422.635 492.391C401.281 495.857 396.237 494.609 398.85 486.676C403.719 471.892 459.424 469.669 480.376 483.398C500.266 496.43 505.254 497.251 505.254 487.601C505.254 475.462 463.976 458.688 434.15 458.688C418.383 458.688 403.978 456.212 402.128 453.225C397.217 445.279 410.609 374.273 424.484 334.466C433.823 307.675 439.653 300.236 451.043 301.099C459.091 301.709 472.145 301.703 480.04 301.099C491.839 300.199 490.443 297.814 471.971 287.736C446.798 273.997 446.5 274.72 494.412 227.222C533.751 188.223 557.556 176.872 588.041 182.592C612.37 187.156 623.467 177.284 604.01 168.388C599.07 166.13 608.915 165.218 625.946 166.287C650.461 167.825 654.667 166.498 645.865 160.068C639.753 155.598 636.821 149.865 639.394 147.292C642.583 144.103 666.575 142.862 691.923 143.258ZM738.486 181.248C745.352 180.745 751.917 180.982 757.817 182.088C783.718 186.947 794.959 203.155 804.043 248.57C809.619 276.446 795.205 281.382 788.326 253.949C782.175 229.442 771.012 231.212 771.012 256.722C771.012 269.221 766.388 279.345 759.413 282.02C751.568 285.031 748.949 292.203 751.261 304.293C753.911 318.153 751.636 322.195 741.259 322.195C733.905 322.195 727.896 318.918 727.896 314.967C727.896 311.016 724.702 307.823 720.752 307.823C716.8 307.823 714.301 310.238 715.289 313.202C716.277 316.165 713.86 319.539 709.91 320.682C705.957 321.827 701.752 316.132 700.496 308.075C699.234 300.017 695.093 293.451 691.335 293.451C687.54 293.451 686.662 301.918 689.318 312.53C693.559 329.428 692.324 331.15 678.644 327.574C666.85 324.49 663.263 326.771 663.263 337.24C663.263 344.771 660.359 350.939 656.876 350.939C647.451 350.939 641.948 323.786 641.831 277.314C641.734 236.093 644.59 230.269 678.896 203.352C694.605 191.027 717.895 182.755 738.486 181.248ZM803.706 196.124C804.294 195.832 805.218 195.981 806.564 196.46C808.367 197.098 810.897 198.386 814.212 200.158C833.456 210.457 850.017 252.361 850.017 290.761C850.017 313.926 852.838 322.195 860.775 322.195C866.701 322.195 871.533 325.388 871.533 329.339C871.534 333.29 855.412 336.567 835.645 336.567C815.891 336.567 799.756 333.29 799.756 329.339C799.756 325.388 793.279 322.195 785.384 322.195C769.566 322.195 769.059 321.279 775.382 304.797C780.566 291.29 792.528 289.657 792.528 302.444C792.528 307.382 800.637 311.437 810.514 311.437C830.48 311.437 832.577 307.613 819.844 294.88C815.12 290.156 812.046 273.887 812.952 258.655C813.852 243.422 811.249 222.245 807.236 211.673C803.426 201.65 801.943 196.999 803.706 196.124ZM949.445 575.43C953.866 574.799 957.765 577.408 957.765 583.751C957.765 590.006 952.674 595.181 946.419 595.181C940.164 595.181 936.282 591.301 937.846 586.608C940.066 579.949 945.024 576.062 949.445 575.43ZM717.306 1090.81C723.113 1090.81 736.775 1104.74 747.647 1121.82C767.492 1153.01 804.754 1189.1 848.252 1219.23C861.092 1228.13 871.544 1237.64 871.533 1240.33C871.528 1243.02 855.745 1254.09 836.401 1264.96C817.057 1275.82 796.351 1284.71 790.427 1284.71C783.438 1284.71 772.775 1265.15 760.17 1229.07C749.48 1198.45 733.135 1154.79 723.777 1132.08C710.023 1098.67 708.773 1090.81 717.306 1090.81ZM981.467 1092.24C999.067 1088.64 1006.44 1126.51 1002.56 1200.58C998.336 1281.38 992.657 1285.81 949.361 1242.68L923.054 1216.46L947.007 1155.44C960.16 1121.86 975.655 1093.43 981.467 1092.24ZM731.51 207.47C727.558 207.471 729.198 210.616 735.124 214.446C741.05 218.276 749.068 221.422 753.026 221.422C756.976 221.422 755.338 218.277 749.412 214.446C743.485 210.616 735.46 207.47 731.51 207.47ZM504.077 329.339C470.691 329.339 466.623 343.541 499.791 344.3C512.632 344.593 536.097 350.578 551.9 357.663C581.671 371.01 588.857 371.332 581.233 359.008C572.68 345.17 531.497 329.339 504.077 329.339ZM473.148 366.908C472.031 366.037 471.299 373.495 471.299 386.828C471.3 404.606 472.69 411.852 474.409 402.965C476.121 394.075 476.115 379.578 474.409 370.691C473.98 368.468 473.52 367.199 473.148 366.908ZM841.024 475.666C838.859 475.574 835.312 477.364 830.265 481.801C823.352 487.872 810.411 495.061 801.521 497.77C785.197 502.745 781.398 509.753 790.175 518.53C798.569 526.924 809.151 523.732 826.231 507.688C841.563 493.285 847.51 475.938 841.024 475.666ZM480.628 562.403C478.266 563.548 476.536 571.608 476.594 588.289C476.649 605.871 478.639 627.655 481.048 636.701C488.165 663.27 493.699 648.058 491.638 607.536C490.138 577.93 484.565 560.492 480.628 562.403ZM805.051 583.751C772.414 585.31 691.554 641.582 703.186 660.402C705.592 664.293 713.184 663.82 721.76 659.225C741.599 648.608 746.124 655.485 732.266 675.279C725.938 684.315 720.752 695.865 720.752 700.913C720.751 714.796 740.822 711.868 754.371 696.038C766.206 682.217 766.598 682.29 782.695 699.652C791.67 709.337 801.397 717.218 804.295 717.218C816.475 717.218 842.873 684.759 842.873 669.731C842.872 660.776 846.059 651.499 850.017 649.056C862.418 641.391 857.873 623.841 843.461 623.841C822.051 623.842 806.9 616.166 806.9 605.183C806.9 599.679 810.809 595.181 815.557 595.181C822.182 595.181 822.163 593.207 815.641 586.692C813.359 584.411 809.707 583.528 805.051 583.751ZM787.149 652.754C794.063 652.693 799.756 655.864 799.756 659.814C799.757 668.575 798.94 668.577 785.384 659.814C776.176 653.863 776.392 652.846 787.149 652.754ZM459.196 660.15C452.312 661.557 453.546 674.898 464.323 691.416C472.973 704.682 481.196 714.571 482.561 713.352C487.068 709.327 475.525 667.187 468.777 663.008C464.722 660.501 461.484 659.681 459.196 660.15ZM497.101 746.467C495.813 746.518 494.64 746.989 493.655 747.98C491.05 750.584 494.908 761.703 502.228 772.69C513.785 790.054 515.821 790.909 518.197 779.245C520.749 766.718 506.123 746.112 497.101 746.467ZM933.812 749.408C930.754 750.034 927.474 753.885 925.659 759.578C923.249 767.172 916.566 775.181 910.783 777.396C905.007 779.612 900.277 784.752 900.277 788.827C900.277 797.101 914.808 798.557 932.047 791.936C944.284 787.24 947.703 756.685 936.754 749.913C935.837 749.346 934.844 749.201 933.812 749.408ZM489.537 792.525C481.791 792.806 494.739 812.124 525.005 844.802C554.921 877.103 577.359 887.161 560.977 860.939C556.044 853.038 548.226 846.567 543.58 846.567C538.925 846.567 528.357 835.545 520.046 822.109C511.743 808.673 500.091 795.811 494.16 793.533C492.198 792.78 490.644 792.484 489.537 792.525ZM925.239 834.464C916.946 834.939 906.422 836.59 893.469 839.339C860.458 846.345 851.681 850.716 857.245 857.409C862.382 863.6 861.332 868.906 853.715 875.227C837.719 888.502 840.424 896.828 860.775 896.828C875.825 896.828 878.761 900.196 878.761 917.755C878.761 929.279 882.822 940.387 887.754 942.381C903.228 948.625 907.112 947.474 921.877 932.716C929.779 924.814 936.249 910.469 936.249 900.778C936.249 891.087 940.02 874.807 944.654 864.637C954.872 842.211 950.119 833.039 925.239 834.464ZM488.697 882.792C483.955 882.956 492.709 894.257 508.196 907.922C523.668 921.585 541.448 932.731 547.698 932.716C553.954 932.701 547.735 925.866 533.914 917.503C520.087 909.139 506.215 897.823 503.069 892.373C499.908 886.925 493.439 882.629 488.697 882.792ZM545.429 889.936C541.103 890.067 545.172 896.454 554.506 904.224C576.443 922.499 582.908 922.438 566.272 904.056C559.122 896.154 549.762 889.804 545.429 889.936Z" fill="#000000" fill-rule="nonzero" opacity="1" stroke="none"/>
</g>
</svg>
